<svg viewBox="0 0 800 800" xmlns="http://www.w3.org/2000/svg"><path d="M879.7781789031927,318.42189888428396 L879.7781842046089,318.4207878232826 M400,595.4219596253506 L400,595.4208454695665 M879.7781789031927,318.42189888428396 L400,595.4219596253506 M879.7781842046089,318.4207878232826 L400,595.4208454695665 M-79.77817890319272,318.42189888428385 L-79.77818420460898,318.4207878232825 M400,595.4219596253506 L-79.77817890319272,318.42189888428385 M400,595.4208454695665 L-79.77818420460898,318.4207878232825 M-79.77817890319272,318.42189888428385 L-35.93630072488236,295.47195170219436 M-35.93630072488236,295.47195170219436 L11.163752173783166,274.81027660581015 M11.163752173783166,274.81027660581015 L61.16632080628233,256.58827988710453 M61.16632080628233,256.58827988710453 L113.69540574731076,240.9391725469874 M113.69540574731076,240.9391725469874 L168.35729058837651,227.97712086506164 M168.35729058837651,227.97712086506164 L224.7434154812766,217.79649266967022 M224.7434154812766,217.79649266967022 L282.4332605738687,210.47133502210357 M282.4332605738687,210.47133502210357 L340.99733145373096,206.05486384990573 M340.99733145373096,206.05486384990573 L400,204.57915015388218 M400,204.57915015388218 L459.002668546269,206.05486384990573 M459.002668546269,206.05486384990573 L517.5667394261312,210.47133502210357 M517.5667394261312,210.47133502210357 L575.2565845187233,217.79649266967022 M575.2565845187233,217.79649266967022 L631.6427094116234,227.97712086506164 M631.6427094116234,227.97712086506164 L686.3045942526892,240.9391725469875 M686.3045942526892,240.9391725469875 L738.8336791937177,256.58827988710465 M738.8336791937177,256.58827988710465 L788.8362478262169,274.8102766058102 M788.8362478262169,274.8102766058102 L835.9363007248825,295.47195170219436 M835.9363007248825,295.47195170219436 L879.7781789031927,318.42189888428396 M-79.77818420460898,318.4207878232825 L-35.936305539640784,295.4708408991268 M-35.936305539640784,295.4708408991268 L11.163747881008248,274.80916603515834 M11.163747881008248,274.80916603515834 L61.16631706690703,256.58716952158244 M61.16631706690703,256.58716952158244 L113.69540258864038,240.93806235774866 M113.69540258864038,240.93806235774866 L168.35728803343164,227.97601082191943 M168.35728803343164,227.97601082191943 L224.743413548648,217.79538274132702 M224.743413548648,217.79538274132702 L282.43325927760134,210.47022517638905 M282.43325927760134,210.47022517638905 L340.9973308032371,206.05375405402103 M340.9973308032371,206.05375405402103 L400,204.5780403746493 M400,204.5780403746493 L459.00266919676284,206.05375405402103 M459.00266919676284,206.05375405402103 L517.5667407223987,210.47022517638905 M517.5667407223987,210.47022517638905 L575.256586451352,217.79538274132702 M575.256586451352,217.79538274132702 L631.6427119665683,227.97601082191943 M631.6427119665683,227.97601082191943 L686.3045974113596,240.93806235774866 M686.3045974113596,240.93806235774866 L738.8336829330929,256.5871695215825 M738.8336829330929,256.5871695215825 L788.8362521189919,274.80916603515834 M788.8362521189919,274.80916603515834 L835.9363055396408,295.47084089912687 M835.9363055396408,295.47084089912687 L879.7781842046089,318.4207878232826" stroke="black"  stroke-width="4"  fill="red"/></svg>